<?xml version="1.0" encoding="UTF-8"?>
<!DOCTYPE svg PUBLIC "-//W3C//DTD SVG 1.1//EN" "http://www.w3.org/Graphics/SVG/1.1/DTD/svg11.dtd">
<!-- Creator: CorelDRAW 2021 (64-Bit) -->
<svg xmlns="http://www.w3.org/2000/svg" xml:space="preserve" width="10.1077in" height="1.6606in" version="1.1" style="shape-rendering:geometricPrecision; text-rendering:geometricPrecision; image-rendering:optimizeQuality; fill-rule:evenodd; clip-rule:evenodd"
viewBox="0 0 4329.95 711.37"
 xmlns:xlink="http://www.w3.org/1999/xlink"
 xmlns:xodm="http://www.corel.com/coreldraw/odm/2003">
 <defs>
  <style type="text/css">
   <![CDATA[
    .fil0 {fill:#FEFEFE}
    .fil1 {fill:#F3603C}
    .fil2 {fill:#F9AF9D}
   ]]>
  </style>
 </defs>
 <g id="Layer_x0020_1">
  <metadata id="CorelCorpID_0Corel-Layer"/>
  <g id="_2256950885232">
   <path class="fil0" d="M3671.9 436.21c-0.02,90.33 -13.1,143.97 -92.61,165.68 -85.39,23.32 -154.43,-13.15 -217.16,-38.78 -12.24,16.58 -25.88,78.79 -29.57,97.31 137.65,69.03 347.61,88.74 425.41,-76.22 35.05,-74.31 29.87,-466.02 23.11,-572.63l-111.14 -1.55 -0.63 47.71c-34.75,-14.41 -129.33,-101.94 -262.72,-29.19 -69.76,38.05 -123.38,105.88 -124.98,218.27 -3.1,217.51 209.01,289.44 336.16,226.76 32.08,-15.82 34.55,-25.92 54.13,-37.37zm-181.41 -321.03c-88.05,27.12 -109.2,108.59 -88.22,181.15 18.93,65.45 95.97,113.37 179.34,87.05 157.66,-49.79 102.37,-327.8 -91.12,-268.2z"/>
   <path class="fil0" d="M1974.85 438.86l1.63 64.18 107.3 0.55 -0.15 -494.06 -111.2 0.31 -1.99 56.69c-73.99,-65.79 -162.44,-90.42 -260.29,-38.44 -72.68,38.6 -127.02,113.94 -128.97,230.68 -2.95,176.66 141.09,276.12 284.6,247.28 53.19,-10.69 79.46,-37.06 109.06,-67.19zm-163.42 -330.49c-187.58,38.26 -136.38,337 54.2,296.37 173.33,-36.96 128.61,-333.65 -54.2,-296.37z"/>
   <path class="fil0" d="M3104.38 439.24l0.24 64.29 107.5 -0.35 -0.1 -492.68 -110.69 -1.08 -2.1 58.02c-40.36,-26.62 -41.54,-48.13 -114.73,-62.67 -136.18,-27.06 -272.32,79.1 -274.96,254.11 -1.68,111.01 54.18,191.5 128.2,227.38 43.35,21.01 98.17,30.87 153.37,20.32 67.2,-12.83 78.25,-42.6 113.28,-67.35zm-159.86 -332.59c-184.15,31.53 -151.34,327.9 41.13,299.95 77.03,-11.19 127.47,-80.93 116.42,-171.96 -9.1,-74.96 -74.29,-142.24 -157.55,-127.98z"/>
   <path class="fil0" d="M862.46 76.12l-0.54 -66.16 -110.47 -0.47 -1.52 494.04 112.53 -0.15c0,-82.62 -2.59,-169.13 0.28,-250.82 2.75,-77.97 35.63,-139.8 108.79,-146.49 83.83,-7.66 104.62,65.1 106.43,140.59 2.03,84.45 0.18,171.25 0.18,255.96l112.49 1.01c0,-82.56 -2.54,-169.14 0.31,-251.08 2.61,-75.13 33.07,-137.81 102.69,-146.13 83.64,-9.99 105.6,62.36 107.66,140.38 2.21,83.44 0.35,170.05 0.17,253.8l112.48 3.28c-0.33,-196.4 52.52,-534.4 -197.77,-501.43 -79.81,10.51 -113.77,41.14 -151.77,80.38 -35.41,-42.88 -61.9,-79.75 -140.76,-81.88 -98.69,-2.66 -128.24,58.8 -161.2,75.16z"/>
   <path class="fil0" d="M4307.56 419.97c-13.96,-20.81 -52.47,-52.19 -76.69,-67.05 -124.59,113.64 -247.95,34.32 -259.62,-56.12 62.1,-3.14 322.51,9.43 356.44,-6.27 35.83,-330.61 -366.34,-379.24 -457.08,-136.52 -52.38,140.09 9.96,270.98 101.39,322.84 122.79,69.66 273.64,25.59 335.56,-56.89zm-335.28 -214.9l243.9 -0.37c-19.99,-59.18 -43.3,-98.49 -116.39,-99.29 -67.11,-0.73 -113.92,41.88 -127.51,99.66z"/>
   <path class="fil0" d="M2296.4 75.8l-0.53 -65.79 -110.4 -0.53 -1.53 494.05 112.46 -0.17c0,-84.49 -2.79,-173.37 0.13,-256.8 2.77,-78.76 40.56,-134.16 114.84,-140.97 90.96,-8.35 117.16,51.5 118.85,135.17 1.74,86.52 0.1,174.86 0.1,261.58l112.47 1.34c0,-210.82 51.59,-509.52 -185.17,-502.45 -45.93,1.37 -92.94,17.76 -127.22,46.07l-33.99 28.5z"/>
   <circle class="fil1" cx="83.26" cy="86.23" r="83.26"/>
   <circle class="fil1" cx="381.25" cy="86.23" r="83.26"/>
   <circle class="fil1" cx="83.26" cy="395.71" r="83.26"/>
   <circle class="fil2" cx="381.25" cy="395.71" r="83.26"/>
  </g>
 </g>
</svg>
